# Blender v2.79 (sub 0) OBJ File: 'Crumb2.blend'
# www.blender.org
mtllib Crumb2.mtl
o Kourabie_Bis_Break_-_WithoutAlmond.001
v 0.043815 -0.103931 0.020363
v 0.112401 0.095071 0.084772
v 0.055453 0.099313 0.071784
v 0.062986 0.102922 0.112414
v -0.052321 0.119959 0.149915
v -0.321290 -0.044564 -0.043442
v 0.282964 -0.043261 -0.026504
v 0.135915 0.087857 0.121585
v 0.103783 0.094349 0.136909
v 0.207080 0.056941 0.107196
v -0.313143 0.016984 0.131636
v -0.167143 0.054729 0.155250
v -0.325457 0.036413 0.032782
v -0.369072 0.010043 0.038128
v 0.167110 0.044556 -0.031137
v 0.118013 0.105267 -0.019704
v 0.165620 0.112590 -0.010910
v -0.258770 0.063381 0.035511
v -0.297422 0.020218 -0.003592
v 0.224341 0.046822 -0.047325
v 0.177374 0.101578 0.035814
v 0.176374 0.086080 0.099997
v 0.041886 0.106833 0.188434
v 0.063631 0.104406 0.151579
v 0.096584 0.092671 0.186379
v -0.193103 0.043695 -0.021643
v -0.215996 0.016305 -0.045636
v -0.263951 0.013450 -0.025888
v -0.242071 -0.077163 -0.104871
v -0.245744 -0.014084 -0.071204
v 0.099157 -0.018898 -0.222492
v 0.020505 0.004533 -0.148016
v 0.040900 0.091955 -0.119785
v 0.204363 0.071105 0.088394
v 0.086728 0.096314 0.025324
v 0.131273 0.099289 0.045625
v -0.113463 0.061341 -0.019037
v -0.128450 0.039982 -0.056636
v -0.153930 0.052426 -0.024727
v -0.010393 0.078250 -0.011967
v -0.034073 0.062963 -0.055732
v -0.065633 0.069599 -0.012552
v -0.146452 0.015974 -0.092950
v -0.275682 0.030779 -0.007187
v -0.348781 -0.016229 0.000976
v -0.045913 0.090723 0.030781
v 0.088302 0.100240 -0.069781
v -0.083000 0.050397 -0.054599
v 0.019723 0.080465 -0.062250
v -0.193562 0.084817 0.045753
v -0.230977 0.078088 0.045825
v 0.015906 0.095287 0.040815
v 0.047097 0.087820 -0.015998
v -0.077212 0.118047 0.109194
v -0.214342 0.062236 0.007701
v -0.054423 0.113110 0.088042
v -0.073135 0.106778 0.068825
v 0.227492 0.104552 0.012231
v 0.196522 0.111408 -0.000246
v -0.117756 0.109980 0.086638
v 0.084293 0.095436 -0.019931
v -0.033662 0.114503 0.106057
v -0.148245 0.096270 0.057753
v -0.302292 -0.010440 -0.024716
v -0.013155 -0.032629 -0.102534
v -0.101710 0.032938 -0.092612
v 0.012677 0.112160 0.134965
v 0.027753 -0.014129 -0.194882
v -0.174893 0.067227 0.005497
v -0.171871 0.027085 -0.054852
v -0.283829 -0.022953 -0.052503
vt 0.486126 0.518038
vt 0.472066 0.560909
vt 0.451382 0.535455
vt 0.811617 0.120013
vt 0.808588 0.091051
vt 0.837702 0.178879
vt 0.115182 0.780580
vt 0.115182 0.905973
vt 0.034508 0.761935
vt 0.768518 0.867888
vt 0.810180 0.835886
vt 0.820337 0.872944
vt 0.677772 0.365581
vt 0.702790 0.024718
vt 0.702790 0.334127
vt 0.296570 0.337326
vt 0.238274 0.330512
vt 0.285474 0.299201
vt 0.659739 0.950558
vt 0.630495 0.911430
vt 0.659739 0.842096
vt 0.528644 0.759964
vt 0.576597 0.735735
vt 0.576597 0.895175
vt 0.801180 0.056527
vt 0.816343 0.024718
vt 0.837702 0.063268
vt 0.203159 0.266441
vt 0.231883 0.246528
vt 0.265809 0.272124
vt 0.886661 0.248066
vt 0.927318 0.024718
vt 0.944019 0.248066
vt 0.033254 0.024718
vt 0.074923 0.104915
vt 0.024480 0.157043
vt 0.512566 0.564043
vt 0.519462 0.524768
vt 0.139212 0.250904
vt 0.160960 0.223383
vt 0.172009 0.256265
vt 0.058470 0.230105
vt 0.084543 0.204688
vt 0.101348 0.243328
vt 0.811186 0.155995
vt 0.819023 0.182693
vt 0.266118 0.295203
vt 0.075883 0.272577
vt 0.299379 0.749664
vt 0.299379 0.952029
vt 0.283472 0.868361
vt 0.124293 0.215004
vt 0.501260 0.686299
vt 0.489291 0.647514
vt 0.533444 0.652710
vt 0.836479 0.470038
vt 0.836479 0.786449
vt 0.761941 0.490375
vt 0.778677 0.121234
vt 0.039803 0.192030
vt 0.024480 0.877746
vt 0.028495 0.847265
vt 0.473445 0.602359
vt 0.518763 0.611189
vt 0.184876 0.399149
vt 0.220221 0.605715
vt 0.158149 0.391192
vt 0.209010 0.299395
vt 0.211959 0.334721
vt 0.069082 0.319662
vt 0.086327 0.311353
vt 0.829576 0.916392
vt 0.761941 0.916392
vt 0.826145 0.895222
vt 0.572991 0.529082
vt 0.556262 0.565118
vt 0.025852 0.820589
vt 0.115674 0.337663
vt 0.081902 0.341755
vt 0.024480 0.565572
vt 0.063328 0.458636
vt 0.048469 0.712498
vt 0.573127 0.609791
vt 0.539134 0.588184
vt 0.421407 0.622486
vt 0.400657 0.626198
vt 0.419356 0.599934
vt 0.964483 0.903810
vt 0.975520 0.756493
vt 0.975520 0.928040
vt 0.144904 0.323914
vt 0.386503 0.975282
vt 0.409639 0.735735
vt 0.451078 0.943641
vt 0.302363 0.273608
vt 0.545312 0.499509
vt 0.182615 0.325910
vt 0.777477 0.075270
vt 0.444957 0.238305
vt 0.569212 0.227958
vt 0.402246 0.305669
vt 0.772256 0.030846
vt 0.386503 0.182774
vt 0.581536 0.666258
vt 0.029181 0.260811
vt 0.179042 0.287843
vt 0.885438 0.788661
vt 0.915524 0.756493
vt 0.915524 0.906178
vt 0.122271 0.432994
vt 0.109980 0.124474
vt 0.918992 0.404684
vt 0.886661 0.325015
vt 0.918992 0.297503
vt 0.822223 0.315045
vt 0.335935 0.300804
vt 0.337543 0.341755
vt 0.386503 0.589641
vt 0.419878 0.555822
vt 0.266782 0.226448
vt 0.387472 0.120419
vt 0.569212 0.024718
vt 0.578775 0.503898
vt 0.269181 0.928480
vt 0.581536 0.478407
vt 0.649380 0.337358
vt 0.618172 0.301535
vt 0.045281 0.948438
vt 0.028164 0.917272
vt 0.479684 0.975282
vt 0.185792 0.196308
vt 0.196854 0.232155
vt 0.500088 0.470038
vt 0.092778 0.424676
vt 0.147226 0.190317
vt 0.269181 0.648076
vt 0.314536 0.391192
vt 0.292617 0.674814
vt 0.314536 0.700227
vt 0.080418 0.066125
vt 0.201950 0.918173
vt 0.164142 0.894385
vt 0.201950 0.761935
vt 0.296053 0.245363
vt 0.398726 0.341901
vt 0.291016 0.175138
vt 0.470699 0.485339
vt 0.330513 0.252287
vt 0.885438 0.539039
vt 0.974078 0.470038
vt 0.974078 0.707057
vt 0.220221 0.394155
vt 0.712981 0.792660
vt 0.630495 0.563671
vt 0.712981 0.470038
vt 0.408373 0.420602
vt 0.751750 0.090952
vn 0.0996 0.9940 0.0453
vn 0.0792 0.9907 -0.1105
vn 0.1606 0.9857 -0.0512
vn 0.3147 0.8734 0.3718
vn 0.2736 0.9594 0.0685
vn 0.6998 0.0197 0.7141
vn -0.8146 -0.0675 0.5760
vn -0.1794 -0.0749 0.9809
vn -0.6563 0.7381 0.1567
vn 0.3288 0.6255 -0.7076
vn 0.0559 0.9549 -0.2916
vn 0.0105 0.8904 -0.4551
vn -0.9051 0.1126 0.4100
vn 0.0064 -0.9664 0.2571
vn -0.3726 0.9113 -0.1750
vn -0.4119 0.6474 -0.6413
vn 0.2661 0.1970 -0.9436
vn 0.9096 -0.4094 -0.0705
vn 0.3261 0.8680 0.3745
vn 0.4194 0.8341 0.3582
vn 0.2116 0.9772 0.0193
vn -0.3547 0.4171 0.8368
vn 0.3463 0.2750 0.8969
vn -0.2528 0.7681 -0.5883
vn -0.3058 0.7823 -0.5427
vn -0.3120 0.7017 -0.6405
vn -0.6498 -0.6236 -0.4345
vn -0.5836 0.0940 -0.8066
vn 0.1975 -0.1498 -0.9688
vn -0.7240 0.4435 -0.5283
vn -0.3038 0.8170 -0.4901
vn -0.1110 0.9938 0.0030
vn -0.0250 0.9857 0.1669
vn -0.1214 0.8887 -0.4422
vn -0.2291 0.8732 -0.4302
vn -0.1920 0.8349 -0.5157
vn -0.1638 0.9594 -0.2297
vn -0.3096 0.7753 -0.5505
vn -0.1322 0.9209 -0.3668
vn 0.5836 0.8011 -0.1331
vn -0.2339 0.7376 -0.6335
vn -0.0407 0.9262 -0.3748
vn 0.2241 0.9251 -0.3064
vn -0.0613 0.8470 -0.5281
vn -0.4005 0.8907 -0.2151
vn -0.1869 0.9765 -0.1076
vn -0.3740 0.9272 0.0204
vn -0.0144 0.9745 -0.2240
vn -0.1782 0.9822 -0.0595
vn -0.5917 0.6542 0.4711
vn -0.3672 0.4316 0.8239
vn -0.2534 0.7745 -0.5796
vn 0.0354 0.9616 -0.2721
vn -0.0349 0.9402 -0.3387
vn 0.7056 0.6403 0.3034
vn 0.2101 0.9473 -0.2418
vn -0.1115 0.9108 0.3975
vn -0.2387 0.9705 0.0343
vn 0.0928 0.9849 -0.1460
vn -0.2377 0.9584 -0.1582
vn 0.2669 0.6835 0.6794
vn -0.4435 0.6048 -0.6615
vn -0.6727 -0.5399 -0.5059
vn 0.0438 0.4108 -0.9107
vn -0.1851 0.7867 0.5889
vn -0.5689 0.0302 -0.8218
vn -0.1360 0.8559 -0.4989
vn -0.8926 -0.3660 -0.2631
vn -0.6649 -0.5023 -0.5528
vn 0.6205 0.7815 0.0645
vn 0.6279 0.7755 0.0659
vn 0.6331 0.7723 0.0526
vn -0.0540 0.3904 -0.9190
vn -0.2733 0.8179 -0.5063
vn -0.3145 0.1007 -0.9439
usemtl Material
s 1
f 2/1/1 3/2/2 4/3/3
f 8/4/4 9/5/5 10/6/6
f 11/7/7 12/8/8 13/9/9
f 15/10/10 16/11/11 17/12/12
f 14/13/13 1/14/14 13/15/9
f 13/16/9 18/17/15 19/18/16
f 15/19/10 20/20/17 7/21/18
f 21/22/19 22/23/20 7/24/18
f 24/25/21 23/26/22 25/27/23
f 25/27/23 10/6/6 9/5/5
f 26/28/24 27/29/25 28/30/26
f 29/31/27 1/32/14 30/33/28
f 31/34/29 32/35/30 33/36/31
f 35/37/32 2/1/1 36/38/33
f 37/39/34 38/40/35 39/41/36
f 40/42/37 41/43/38 42/44/39
f 22/45/20 10/6/6 34/46/40
f 19/18/16 44/47/41 28/30/26
f 40/42/37 42/44/39 46/48/42
f 7/49/18 47/50/43 15/51/10
f 42/44/39 48/52/44 37/39/34
f 25/27/23 9/5/5 24/25/21
f 41/53/38 40/54/37 49/55/45
f 13/56/9 1/57/14 11/58/7
f 8/4/4 2/59/1 9/5/5
f 49/60/45 33/36/31 32/35/30
f 12/8/8 50/61/46 51/62/47
f 40/54/37 52/63/48 53/64/49
f 38/40/35 37/39/34 48/52/44
f 54/65/50 1/66/14 5/67/51
f 55/68/52 18/17/15 51/69/47
f 18/17/15 28/30/26 44/47/41
f 56/70/53 46/48/42 57/71/54
f 58/72/55 20/73/17 59/74/56
f 32/35/30 41/43/38 49/60/45
f 17/75/12 16/76/11 35/37/32
f 51/62/47 18/77/15 12/8/8
f 60/78/57 54/79/50 57/71/54
f 56/70/53 57/71/54 54/79/50
f 10/80/6 25/81/23 7/82/18
f 16/76/11 47/83/43 61/84/58
f 56/85/53 54/86/50 62/87/59
f 34/88/40 7/89/18 22/90/20
f 37/39/34 63/91/60 42/44/39
f 12/92/61 1/93/14 60/94/57
f 19/18/16 28/30/26 64/95/62
f 17/75/12 36/38/33 21/96/19
f 51/69/47 50/97/46 55/68/52
f 4/98/3 24/25/21 9/5/5
f 65/99/63 1/100/14 66/101/64
f 24/25/21 67/102/65 23/26/22
f 68/103/66 1/100/14 65/99/63
f 26/28/24 18/17/15 55/68/52
f 49/55/45 47/83/43 33/104/31
f 56/70/53 52/105/48 46/48/42
f 55/68/52 69/106/67 26/28/24
f 58/107/55 21/108/19 7/109/18
f 1/66/14 67/110/65 5/67/51
f 48/52/44 41/43/38 65/111/63
f 7/112/18 20/113/17 58/114/55
f 61/84/58 47/83/43 53/64/49
f 34/46/40 10/6/6 7/115/18
f 13/16/9 45/116/68 14/117/13
f 5/118/51 67/119/65 62/87/59
f 42/44/39 41/43/38 48/52/44
f 27/29/25 30/120/28 28/30/26
f 39/41/36 69/106/67 37/39/34
f 28/30/26 18/17/15 26/28/24
f 19/18/16 18/17/15 44/47/41
f 1/100/14 31/121/29 7/122/18
f 7/82/18 25/81/23 1/66/14
f 59/123/56 17/75/12 21/96/19
f 15/51/10 47/50/43 16/124/11
f 53/64/49 49/55/45 40/54/37
f 5/118/51 62/87/59 54/86/50
f 59/123/56 21/96/19 58/125/55
f 46/48/42 52/105/48 40/42/37
f 17/12/12 20/73/17 15/10/10
f 69/106/67 55/68/52 50/97/46
f 1/14/14 45/126/68 6/127/69
f 13/9/9 12/8/8 18/77/15
f 12/8/61 60/128/57 63/129/60
f 1/93/70 50/130/71 12/92/72
f 43/131/73 27/29/25 70/132/74
f 53/64/49 47/83/43 49/55/45
f 22/133/20 21/96/19 36/38/33
f 1/66/14 25/81/23 23/134/22
f 57/71/54 63/91/60 60/78/57
f 65/111/63 66/135/64 48/52/44
f 38/40/35 48/52/44 66/135/64
f 30/136/28 1/137/14 71/138/75
f 71/138/75 1/137/14 6/139/69
f 32/35/30 31/34/29 68/140/66
f 33/141/31 47/142/43 7/143/18
f 64/95/62 28/30/26 71/144/75
f 62/87/59 67/119/65 3/2/2
f 1/100/14 43/145/73 66/101/64
f 30/120/28 43/131/73 29/146/27
f 36/38/33 17/75/12 35/37/32
f 68/103/66 31/121/29 1/100/14
f 26/28/24 39/41/36 70/132/74
f 38/40/35 43/131/73 70/132/74
f 3/2/2 52/63/48 62/87/59
f 62/87/59 52/63/48 56/85/53
f 70/132/74 27/29/25 26/28/24
f 63/91/60 57/71/54 46/48/42
f 4/98/3 67/102/65 24/25/21
f 38/40/35 66/135/64 43/131/73
f 35/37/32 3/2/2 2/1/1
f 22/133/20 2/1/1 8/147/4
f 71/144/75 6/148/69 64/95/62
f 61/84/58 53/64/49 35/37/32
f 45/116/68 13/16/9 19/18/16
f 36/38/33 2/1/1 22/133/20
f 31/149/29 33/150/31 7/151/18
f 9/5/5 2/59/1 4/98/3
f 60/152/57 1/66/14 54/65/50
f 68/140/66 65/111/63 32/35/30
f 59/74/56 20/73/17 17/12/12
f 38/40/35 70/132/74 39/41/36
f 8/4/4 10/6/6 22/45/20
f 69/106/67 50/97/46 63/91/60
f 63/91/60 46/48/42 42/44/39
f 23/134/22 67/110/65 1/66/14
f 63/129/60 50/61/46 12/8/61
f 45/126/68 1/14/14 14/13/13
f 64/95/62 45/116/68 19/18/16
f 63/91/60 37/39/34 69/106/67
f 30/120/28 27/29/25 43/131/73
f 52/63/48 35/37/32 53/64/49
f 71/144/75 28/30/26 30/120/28
f 1/153/14 12/154/8 11/155/7
f 45/116/68 64/95/62 6/148/69
f 3/2/2 35/37/32 52/63/48
f 61/84/58 35/37/32 16/76/11
f 1/100/14 29/156/27 43/145/73
f 3/157/2 67/102/65 4/98/3
f 41/43/38 32/35/30 65/111/63
f 26/28/24 69/106/67 39/41/36
