# Blender v2.79 (sub 0) OBJ File: 'Textured_Kourabie_Bis_Break_Spite.blend'
# www.blender.org
mtllib Textured_Kourabie_Bis_Break_Spite.mtl
o Kourabie_Bis_Break_-_WithAlmond.001
v 0.057044 -0.068438 0.060984
v 0.089055 -0.088397 0.078606
v 0.000440 -0.020183 -0.083343
v -0.069361 0.030827 -0.007744
v -0.099330 0.061023 -0.032831
v -0.037964 0.045654 0.047048
v -0.117116 0.082822 -0.073278
v 0.032304 -0.026517 0.121610
v 0.028235 0.002964 0.104489
v -0.074828 -0.005144 -0.015410
v -0.007574 -0.078599 0.035545
v -0.056945 -0.003323 0.056658
v 0.077785 -0.022695 0.030193
v 0.032323 0.010207 0.019813
v 0.047535 0.001759 0.048467
v -0.006704 0.007261 0.089730
v -0.050878 0.105086 -0.122120
v 0.023469 -0.043602 0.003204
v 0.099703 -0.064442 0.106817
v 0.101990 -0.032453 0.055037
v 0.090265 -0.014989 0.080117
v 0.011512 0.000335 -0.051702
v 0.012186 0.024470 -0.024288
v 0.031047 -0.014023 -0.017458
v 0.074022 -0.014914 0.048879
v 0.083876 -0.038460 0.021573
v 0.053883 -0.021031 0.007319
v 0.098017 -0.128444 0.079905
v -0.105854 0.055688 0.004670
v 0.075078 -0.042408 0.129293
v 0.071718 0.001237 0.093611
v -0.065558 0.042978 -0.115915
v 0.000312 0.035461 -0.055417
v -0.008677 0.023334 -0.081894
v -0.071713 0.029041 0.017825
v 0.048808 -0.082348 -0.028467
v 0.063570 -0.113493 -0.010036
v -0.025672 0.028337 0.057352
v 0.003170 0.056202 -0.002753
v -0.080717 0.088604 -0.003661
v 0.054279 -0.046427 -0.011819
v 0.108062 -0.053323 0.041373
v 0.101140 -0.076461 0.025613
v -0.041253 0.056062 -0.085791
v -0.014981 0.092359 -0.031658
v 0.029164 0.024304 0.059657
v -0.006273 0.062768 -0.041358
v 0.114777 -0.051531 0.063936
v -0.094587 0.071406 -0.128447
v 0.025535 -0.046528 -0.048208
v -0.042010 0.124254 -0.074104
vt 0.224945 0.769011
vt 0.222121 0.766433
vt 0.223401 0.764977
vt 0.224052 0.772527
vt 0.222420 0.774108
vt 0.221969 0.771698
vt 0.230317 0.773899
vt 0.230656 0.771420
vt 0.231793 0.772745
vt 0.226920 0.763098
vt 0.227322 0.760526
vt 0.228860 0.762020
vt 0.231128 0.775316
vt 0.232594 0.775186
vt 0.232268 0.776315
vt 0.227020 0.769393
vt 0.228948 0.769330
vt 0.228263 0.771187
vt 0.231320 0.773988
vt 0.229638 0.774240
vt 0.229291 0.772620
vt 0.226983 0.778225
vt 0.224303 0.776780
vt 0.228415 0.777418
vt 0.235106 0.774343
vt 0.234693 0.776227
vt 0.233699 0.774599
vt 0.225469 0.765291
vt 0.227768 0.767894
vt 0.226172 0.767435
vt 0.225945 0.773437
vt 0.225849 0.775135
vt 0.232589 0.767705
vt 0.232697 0.769937
vt 0.230800 0.768652
vt 0.227757 0.772923
vt 0.230154 0.775636
vt 0.227452 0.765999
vt 0.230747 0.766034
vt 0.232902 0.771917
vt 0.229129 0.767190
vt 0.231023 0.776251
vt 0.231423 0.777329
vt 0.230174 0.778156
vt 0.224374 0.763323
vt 0.224641 0.761475
vt 0.225924 0.771295
vt 0.228912 0.775746
vt 0.230685 0.763983
vt 0.230709 0.762000
vt 0.232133 0.764277
vt 0.234521 0.770952
vt 0.234656 0.772846
vt 0.232539 0.765770
vt 0.222520 0.763266
vn 0.2436 -0.4912 -0.8363
vn -0.6831 -0.4437 -0.5801
vn -0.9831 0.0231 -0.1815
vn -0.8675 -0.4280 -0.2533
vn -0.5898 -0.7588 0.2764
vn -0.6968 -0.5341 0.4788
vn 0.6860 0.6636 -0.2985
vn 0.6770 0.7148 -0.1754
vn 0.5820 0.8092 -0.0804
vn 0.3153 0.6098 -0.7272
vn -0.9268 0.3317 0.1761
vn 0.7781 0.6065 -0.1635
vn 0.7659 0.6389 0.0721
vn 0.4717 -0.2213 0.8535
vn 0.8869 0.2557 -0.3847
vn 0.8979 0.3585 -0.2556
vn 0.8002 0.4134 -0.4346
vn 0.6430 0.7261 -0.2435
vn 0.7187 0.4676 -0.5146
vn 0.6310 0.5438 -0.5533
vn -0.1396 -0.2720 0.9521
vn -0.4840 -0.5945 0.6421
vn 0.2084 -0.7814 0.5882
vn -0.2375 0.2203 0.9461
vn 0.0233 0.1284 0.9915
vn 0.2777 0.9020 0.3304
vn -0.0675 -0.6432 -0.7627
vn 0.8335 0.3801 -0.4010
vn 0.7179 0.3387 -0.6082
vn 0.2111 -0.3246 -0.9220
vn 0.1809 -0.8408 -0.5102
vn -0.2609 0.4855 0.8344
vn -0.1215 0.4181 0.9002
vn 0.7756 0.5912 0.2211
vn 0.7051 0.3290 -0.6282
vn 0.9008 0.1733 -0.3982
vn 0.7869 0.2085 -0.5808
vn 0.6907 0.7025 0.1714
vn 0.4446 0.8887 0.1124
vn 0.8309 0.4045 -0.3821
vn 0.9742 0.1910 0.1201
vn -0.6169 -0.0863 -0.7823
vn 0.3491 -0.3524 -0.8683
vn 0.8665 -0.1264 -0.4829
vn 0.1386 0.9784 -0.1530
vn -0.9753 -0.0364 0.2180
vn -0.4360 0.6858 0.5827
vn -0.4437 0.2880 0.8486
vn 0.3684 0.3519 0.8605
vn -0.5228 -0.0222 0.8522
usemtl Material.001
s 1
f 3/1/1 4/2/2 5/3/3
f 10/4/4 11/5/5 12/6/6
f 13/7/7 14/8/8 15/9/9
f 17/10/10 7/11/11 5/12/3
f 20/13/12 21/14/13 19/15/14
f 22/16/15 23/17/16 24/18/17
f 13/7/7 25/19/18 26/20/19
f 24/18/17 14/8/8 27/21/20
f 2/22/21 1/23/22 28/24/23
f 8/25/24 30/26/25 31/27/26
f 3/1/1 5/3/3 32/28/27
f 33/29/28 22/16/15 34/30/29
f 36/31/30 37/32/31 10/4/4
f 11/5/5 10/4/4 37/32/31
f 6/33/32 38/34/33 39/35/34
f 26/20/19 41/36/35 27/21/20
f 1/23/22 11/5/5 37/32/31
f 13/7/7 15/9/9 25/19/18
f 42/37/36 26/20/19 20/13/12
f 44/38/37 17/10/10 45/39/38
f 14/8/8 24/18/17 23/17/16
f 14/8/8 38/34/33 46/40/39
f 23/17/16 33/29/28 47/41/40
f 48/42/41 2/43/21 28/44/23
f 34/30/29 32/28/27 44/38/37
f 17/10/10 49/45/42 7/46/11
f 3/1/1 50/47/43 10/4/4
f 43/48/44 26/20/19 42/37/36
f 28/24/23 1/23/22 37/32/31
f 48/42/41 28/44/23 42/37/36
f 51/49/45 29/50/46 40/51/47
f 16/52/48 46/40/39 38/34/33
f 47/41/40 33/29/28 44/38/37
f 43/48/44 36/31/30 41/36/35
f 21/14/13 25/19/18 15/9/9
f 22/16/15 50/47/43 3/1/1
f 45/39/38 17/10/10 51/49/45
f 16/52/48 9/53/49 46/40/39
f 8/25/24 31/27/26 15/9/9
f 43/48/44 37/32/31 36/31/30
f 3/1/1 34/30/29 22/16/15
f 41/36/35 50/47/43 24/18/17
f 5/12/3 29/50/46 51/49/45
f 24/18/17 27/21/20 41/36/35
f 35/54/50 45/39/38 40/51/47
f 45/39/38 35/54/50 6/33/32
f 32/28/27 17/10/10 44/38/37
f 51/49/45 17/10/10 5/12/3
f 39/35/34 14/8/8 23/17/16
f 40/51/47 45/39/38 51/49/45
f 13/7/7 26/20/19 27/21/20
f 30/26/25 19/15/14 21/14/13
f 10/4/4 4/2/2 3/1/1
f 25/19/18 20/13/12 26/20/19
f 20/13/12 25/19/18 21/14/13
f 41/36/35 26/20/19 43/48/44
f 49/45/42 32/28/27 5/3/3
f 45/39/38 39/35/34 47/41/40
f 49/45/42 17/10/10 32/28/27
f 10/4/4 50/47/43 36/31/30
f 15/9/9 31/27/26 21/14/13
f 31/27/26 30/26/25 21/14/13
f 28/24/23 37/32/31 43/48/44
f 38/34/33 14/8/8 39/35/34
f 44/38/37 33/29/28 34/30/29
f 9/53/49 15/9/9 46/40/39
f 50/47/43 41/36/35 36/31/30
f 34/30/29 3/1/1 32/28/27
f 5/3/3 7/55/11 49/45/42
f 24/18/17 50/47/43 22/16/15
f 22/16/15 33/29/28 23/17/16
f 2/43/21 48/42/41 19/15/14
f 43/48/44 42/37/36 28/44/23
f 19/15/14 48/42/41 20/13/12
f 27/21/20 14/8/8 13/7/7
f 44/38/37 45/39/38 47/41/40
f 23/17/16 47/41/40 39/35/34
f 15/9/9 14/8/8 46/40/39
f 20/13/12 48/42/41 42/37/36
f 15/9/9 9/53/49 8/25/24
f 39/35/34 45/39/38 6/33/32
f 29/50/46 5/3/3 4/2/2 10/4/4
f 35/54/50 40/51/47 29/50/46 10/4/4
f 1/23/22 2/43/21 19/15/14 30/26/25 8/25/24 9/53/49 16/52/48 38/34/33 6/33/32 35/54/50 10/4/4 12/6/6 11/5/5
l 11 18
